<svg height="150" width="100%" style="border:1px solid red" xmlns="http://www.w3.org/2000/svg">

    <symbol id="clef-type-g" y="-44" class="clef">
                <path d="m 20.688974,6.060367 c 0.522589,5.367828 -3.468057,9.711938 -7.001377,13.223555 -1.605201,1.540434 -0.266069,0.254444 -1.105224,1.02042 -0.175393,-0.823531 -0.512631,-2.973127 -0.481124,-3.623635 0.224053,-4.62546 3.983177,-11.310768 7.276476,-13.776518 0.530403,0.990218 0.96776,1.069888 1.311249,3.156178 z m 1.117775,27.716067 C 19.690479,32.220889 16.912644,31.813133 14.365216,32.256861 14.036682,30.102594 13.708166,27.948327 13.379633,25.79406 17.416399,21.795069 21.80431,17.154242 22.035214,11.13237 22.136089,7.300102 21.56089,3.111604 19.15278,0 c -2.919162,0.220172 -4.977964,3.70181 -6.527396,5.866173 -2.556477,4.585282 -1.959815,10.159425 -0.978766,15.103631 -1.389732,1.634115 -3.3130268,2.993508 -4.6829278,4.693969 -4.045453,3.964066 -7.569398,9.323807 -6.876017,15.244238 0.314832,5.724502 4.446084,11.047893 10.0792408,12.409396 2.138883,0.53952 4.402335,0.592732 6.566062,0.168596 0.37764,3.863435 1.763476,7.949184 0.158824,11.698175 -1.203179,2.74478 -4.786259,5.15912 -7.4389568,3.76352 -1.029126,-0.54143 -0.195173,-0.0872 -0.820818,-0.43143 1.8369628,-0.44181 3.4334238,-1.77969 3.8805678,-2.68699 1.438479,-2.514046 -0.68653,-6.248533 -3.7008478,-5.767117 -3.883882,0.08032 -5.47806,5.392757 -2.980081,8.044207 2.312455,2.61052 6.5813078,2.25304 9.3235668,0.54602 3.112892,-2.02599 3.501349,-6.083698 3.145807,-9.550018 -0.119298,-1.163104 -0.690805,-4.584168 -0.761546,-5.815231 1.197135,-0.426438 0.359302,-0.101442 2.048018,-0.770115 4.567631,-1.808632 7.481899,-7.312447 6.171166,-12.229902 C 25.21234,37.76514 23.966647,35.28428 21.806749,33.776434 Z m 0.963244,9.884875 c 0.367509,3.419757 -1.809234,7.420018 -5.286716,8.516208 -0.23396,-1.364971 -0.295635,-1.735571 -0.451541,-2.531097 -0.827977,-4.225087 -1.277457,-8.564235 -1.916185,-12.846344 2.790008,-0.288544 5.936794,0.932715 6.90737,3.75126 0.418487,0.989652 0.587664,2.054817 0.747072,3.109973 z m -8.840899,8.92156 c -4.3683198,0.242908 -8.5842718,-2.7386 -9.6741108,-7.006009 -1.28606,-3.697003 -0.907115,-7.950214 1.4091,-11.16872 1.914709,-2.922184 4.4754098,-5.330242 6.9171568,-7.800251 0.314213,1.93564 0.628426,3.871263 0.942622,5.806903 -5.1349488,1.342944 -8.5929598,8.11333 -5.5201778,12.793494 0.914207,1.312244 3.3936238,3.817176 4.7483978,2.805598 -1.892113,-1.171638 -3.4397248,-3.190964 -3.1069168,-5.540112 -0.141018,-2.202 2.3520498,-4.997554 4.5522978,-5.491573 0.752756,4.926538 1.61619,10.428602 2.368963,15.355137 -0.867761,0.171736 -1.753327,0.245484 -2.637332,0.245533 z" />
    </symbol>
    <symbol id="clef-type-f" y="-10" class="clef">
        <path style="fill: black;" d="m 1.967102,11.568613 c 0.755587,0.953747 2.09438,1.586893 3.618443,1.586893 2.35859,0 4.269307,-1.514395 4.269307,-3.3832252 0,-1.86883 -1.910717,-3.383225 -4.269307,-3.383225 -1.316238,0.269047 -1.852719,0.583203 -2.147545,-0.188494 1.164797,-3.520166 3.040071,-4.322474 6.255744,-4.322474 4.270921,0 6.283134,3.881043 6.283134,9.2635942 C 14.795972,23.493678 2.632475,29.722034 0,31.629529 0.368933,32.478558 0.349598,32.447949 0.349598,32.407672 12.646821,26.822128 21.776695,19.161538 21.776695,11.625 c 0,-5.9883092 -3.795659,-11.37730419 -12.163498,-11.19686519 -5.026508,0 -11.035763,5.58554399 -7.646095,11.14047819 z M 23.226651,5.7446318 c 0,1.156741 0.937636,2.094377 2.094373,2.094377 1.156743,0 2.09438,-0.937636 2.09438,-2.094377 0,-1.156741 -0.937637,-2.094377 -2.09438,-2.094377 -1.156737,0 -2.094373,0.937636 -2.094373,2.094377 z m 0,8.8608292 c 0,1.156741 0.937636,2.094378 2.094373,2.094378 1.156743,0 2.09438,-0.937637 2.09438,-2.094378 0,-1.156742 -0.937637,-2.094378 -2.09438,-2.094378 -1.156737,0 -2.094373,0.937636 -2.094373,2.094378 z"/>
    </symbol>
    
    <symbol id="note-type-whole" x="0" y="-5" class="note">
        <path d="M 3.0292236,9.3810367 C 1.3359739,8.6689074 0,6.7337269 0,4.9931811 0,0.06670451 7.7438513,-1.8828317 10.941846,2.2385358 14.400124,6.6952923 8.7563873,11.789713 3.0292236,9.3810367 Z M 8.1943764,8.1434263 C 9.1365413,6.1786331 8.2357007,2.2858162 6.6039284,1.2698271 4.2074763,-0.22219159 2.7385758,2.320364 3.7366783,6.232741 c 0.690326,2.7060982 3.4990633,3.909975 4.4576981,1.9106853 z" />
    </symbol>   
    <symbol id="note-type-half" x="0.2" y="-5" class="note">
        <path d="M 0,6.584154 C -1.8999935e-6,4.86799 0.8496298,3.34984 2.5488967,2.029703 4.2481551,0.676574 6.0473756,7e-6 7.9465595,0 9.0460741,7e-6 10.332828,0.219778 10.895284,0.841583 v 0 m 0,0 c 1.078412,0.907591 1.113034,1.815182 1.099526,2.722772 v 0 c 0,0 0.234487,2.240677 -2.4489431,4.603962 C 7.9132316,9.389435 6.1140117,10 4.1482047,10 3.0486751,10 2.0824281,9.686466 1.2494595,9.059406 0.4164846,8.399339 -1.8999935e-6,7.574255 0,6.584154 m 2.2990047,1.485151 c 1.7658962,0 3.5484564,-0.742572 5.3476862,-2.227722 C 9.4792189,4.356436 10.395487,3.250829 10.395499,2.524749 10.395487,2.062713 10.195575,1.831687 9.7957576,1.83168 8.5629511,1.831687 6.8636873,2.541256 4.6979661,3.960394 2.5655517,5.346533 1.4993476,6.50165 1.4993511,7.425741 c -3.5e-6,0.429045 0.2665474,0.643564 0.7996536,0.643564"
       />
    </symbol>
    <symbol id="note-type-common" class="note">
        <path d="M 11.11245,1.2267864 C 9.9485498,0.02810648 6.3957098,-0.29581352 3.8140998,1.1270865 0.75441985,2.8134664 -0.64108015,5.9756964 0.69373985,8.1930364 2.0285599,10.410377 5.5896998,10.846477 8.6493798,9.1600964 c 1.8367602,-1.01235 3.0610402,-2.56017 3.4685002,-4.11321 0.14022,-0.8536 0.12392,-1.29646 0.0645,-1.89543 -0.11774,-0.78255 -0.39997,-1.29485 -1.06992,-1.92465 z" />
    </symbol>
    <symbol id="note-type-quarter" y="-5">
        <use href="#note-type-common"/>        
    </symbol>
    <symbol id="note-type-eighth" y="-5">
        <use href="#note-type-common"/>
    </symbol>
    <symbol id="note-type-16th" y="-5">
        <use href="#note-type-common"/>
    </symbol>
    <symbol id="note-type-32nd" y="-5">
        <use href="#note-type-common"/>
    </symbol>
    
    <symbol id="dot">
        <circle cx="15" cy="2.5" r="1.5" style="fill: black"/>
    </symbol>
    <symbol id="stem-type-down" x="0.25" y="0"  class="stem">
        <line x1="0" x2="0" y1="2" y2="30" style="stroke-width:3; stroke: black"/>
    </symbol>

    <symbol id="stem-type-up" x="10.4" y="-32">
        <use href="#stem-type-down"/>
    </symbol>


    <symbol id="flag-type-up" class="flag">
        <path d="M 0,7.3053366 C 6.3268996,9.864387 8.4075953,15.15023 7.1207486,18.75 9.4678066,6.6800183 0.16026846,7.8945691 0,0 Z" />
    </symbol>

    <symbol id="flag-type-up-eighth"  x="12" y="-31" >
        <use href="#flag-type-up" />
    </symbol>

    <symbol id="flag-type-up-32nd" x="12" y="-31" >
        <use href="#flag-type-up" />   
        <use y="5" href="#flag-type-up" />   
        <use y="10" href="#flag-type-up" />   
    </symbol>

    <symbol id="flag-type-up-16th" x="12" y="-31" >
        <use href="#flag-type-up" />   
        <use y="6" href="#flag-type-up" />   
    </symbol>

    <symbol id="flag-type-down" x="1" y="20" class="flag">
        <path d="M -1.9475433e-7,11.444664 C 6.3268998,8.8856132 8.4075948,3.5997702 7.1207488,1.9737717e-7 9.4678068,12.069982 0.16026831,10.855431 -1.9475433e-7,18.75 Z" />
    </symbol>

    <symbol id="flag-type-down-eighth" y="-8">
        <use  href="#flag-type-down"/>
    </symbol>

    <symbol id="flag-type-down-16th" x="0" y="-7" >
        <use href="#flag-type-down" />   
        <use y="-6" href="#flag-type-down" />   
    </symbol>

    <symbol id="flag-type-down-32nd" x="0" y="-7" >
        <use href="#flag-type-down" />   
        <use y="-5" href="#flag-type-down" />
        <use y="-10" href="#flag-type-down" />
    </symbol>

    <symbol id="rest-type-whole" y="-10">
        <path style="fill:#000000;fill-opacity:1;stroke:none;stroke-width:0.06309844" d="M 0,0 H 10 V 3.7 H 0 Z"/>
    </symbol>

    <symbol id="rest-type-half"  y="-4">
        <path style="fill:#000000;fill-opacity:1;stroke:none;stroke-width:0.06309844" d="M 0,0 H 10 V 3.7 H 0 Z"/>
    </symbol>

    <symbol id="rest-type-quarter" y="-15">
        <path d="m 2.3934204,0.79165117 c 0,0 7.2454684,7.04176403 6.3046744,8.61773203 -0.940794,1.5759678 -7.3130596,1.3365108 -0.862552,13.4430888 0,0 -6.3258365,-6.451949 -6.5639188,-10.601458 C 1.06298,8.6145872 7.2544648,7.9106552 1.878084,0.23000017 c -0.00115,-0.0017 0.5145717,0.56409 0.5153364,0.561651 z"
            style="fill:#000000;stroke:#000000;stroke-width:0.6732285;stroke-linecap:butt;stroke-linejoin:miter;stroke-opacity:1" />
        <path d="M 7.2936638,21.74308 C 0.0257813,16.598874 -2.76452,23.718517 4.3965708,29.816722 3.4751298,28.235298 0.8153667,20.467775 7.6494418,22.83453"
            style="fill:#000000;stroke:#000000;stroke-width:0.44881898px;stroke-linecap:butt;stroke-linejoin:miter;stroke-opacity:1"/>
    </symbol>


    <symbol id="rest-type-eighth" y="-10">
          <circle cx="3.3951995" cy="3.3951995" r="3.1649041" />
          <path d="m 5.92,19.9 c 0,-0.444 5.3,-18.745 5.3,-18.745"
            style="fill:none;stroke:#000000;stroke-width:1.35807991;stroke-linecap:butt;stroke-linejoin:miter;stroke-opacity:1"/>
          <path d="m 3.194,6.092 c 2.476,0.17 7.116,-0.457 7.95,-4.76 -1.07,1.68 -1.1,4.96 -7.3,3.52" 
            style="fill:none;stroke:#000000;stroke-width:1.35807991;stroke-linecap:butt;stroke-linejoin:miter;stroke-opacity:1" />
    </symbol>

    <symbol id="rest-type-16th" y="-15">
        <use x="5" y="10" href="#rest-type-eighth"></use>
        <use x="2" y="20" href="#rest-type-eighth"></use>
    </symbol>

    <symbol id="rest-type-32nd"  y="-20">
        <use x="6" y="10" href="#rest-type-eighth"></use>
        <use x="3" y="20" href="#rest-type-eighth"></use>
        <use x="0" y="30" href="#rest-type-eighth"></use>
    </symbol>

    <symbol id="accidental-type-sharp" x="-10" y="-15">
        <path style="fill:#000000;fill-opacity:1;stroke-width:0.41080642"
            d="m 2.7586476,18.041723 v -6.985174 l 2.894694,-0.819686 v 6.949531 z m 5.699663,-1.689865 -1.9901095,0.585064 V 9.9873868 L 8.4583106,9.4171695 V 6.5304432 L 6.4682011,7.1006606 V 0 H 5.6533416 V 7.3159755 L 2.7586476,8.1698147 V 1.2651749 H 1.990105 V 8.432651 L 0,9.0043552 v 2.8926688 l 1.990105,-0.570221 v 6.936171 L 0,18.831712 V 21.7125 l 1.990105,-0.570217 v 7.060564 h 0.7685426 v -7.313006 l 2.894694,-0.816716 v 6.869008 H 6.4682011 V 19.814744 L 8.4583106,19.24304 Z"/>
    </symbol>

    <symbol id="accidental-type-flat" x="-10" y="-20">
          <path style="font-style:normal;font-weight:normal;font-size:317.82015991px;line-height:125%;font-family:'Bitstream Vera Sans';fill:#000000;fill-opacity:1;stroke:none;stroke-width:0.41670763"
             d="m 0.996899,0 v 12.842133 c 0,4e-6 0,0.865656 0,2.596948 1.15025,-1.109109 2.441081,-1.677188 3.872517,-1.704249 0.89464,1.1e-5 1.66146,0.392257 2.30051,1.176739 0.56233,0.730398 0.85628,1.541941 0.88186,2.434638 0.0256,0.703343 -0.14068,1.514883 -0.49845,2.434637 -0.12787,0.378717 -0.40898,0.784492 -0.84351,1.217316 -0.33232,0.324617 -0.67738,0.66276 -1.03523,1.014431 C 3.783061,23.473371 1.89154,24.947676 0,26.435513 V 0 H 0.996899 M 4.102586,16.331778 C 3.795848,15.953061 3.399638,15.763702 2.913975,15.763702 c -0.613457,0 -1.111907,0.365193 -1.495311,1.095581 -0.281183,0.568083 -0.421765,1.907129 -0.421765,4.017149 v 3.489643 c 0.02561,0.108203 0.741272,-0.554558 2.14713,-1.988284 0.766846,-0.757442 1.265277,-1.650148 1.495327,-2.6781 0.10226,-0.405778 0.1533,-0.811542 0.1533,-1.21732 0,-0.8927 -0.23006,-1.60956 -0.690146,-2.150593" />
    </symbol>

    <symbol id="accidental-type-natural" x="-10" y="-6">
        <path d="M 5,5.60606 V 22.90909 H 4.212121 V 16.424241 L 0,17.515151 V 0 H 0.757577 V 6.757576 Z M 0.757577,9.666667 v 4.757576 L 4.212121,13.515151 V 8.757576 Z"
            style="fill:#000000;fill-opacity:1;stroke-width:0.63131309" />
    </symbol>

    <line x1="0" x2="1000" y1="50" y2="50" stroke="darkgrey"></line>
    <line x1="0" x2="1000" y1="60" y2="60" stroke="darkgrey"></line>
    <line x1="0" x2="1000" y1="70" y2="70" stroke="darkgrey"></line>
    <line x1="0" x2="1000" y1="80" y2="80" stroke="darkgrey"></line>
    <line x1="0" x2="1000" y1="90" y2="90" stroke="darkgrey"></line>
    

    <g id="16th-up" transform="translate(20,50)">
        <use href="#accidental-type-natural" />
        <use href="#note-type-16th" />
        <use href="#stem-type-up" />
        <use href="#flag-type-up-16th" />
    </g>
    <g transform="translate(40,50)">
        <use href="#note-type-16th" />
        <use href="#stem-type-down" />
        <use href="#flag-type-down-16th" />
    </g>


    <g transform="translate(60,50)">
        <use href="#note-type-16th" />
        <use href="#dot" />
        <use href="#stem-type-up" />
        <use href="#flag-type-up-16th" />
    </g>
    <g transform="translate(80,50)">
        <use href="#note-type-16th" />
        <use href="#dot" />
        <use href="#stem-type-down" />
        <use href="#flag-type-down-16th" />
    </g>

    <g transform="translate(100,50)">
        <use href="#note-type-eighth" />
        <use href="#stem-type-up" />
        <use href="#flag-type-up-eighth" />
    </g>
    <g transform="translate(120,50)">
        <use href="#note-type-eighth" />
        <use href="#stem-type-down" />
        <use href="#flag-type-down-eighth" />
    </g>

    <g transform="translate(140,50)">
        <use href="#note-type-eighth" />
        <use href="#dot" />
        <use href="#stem-type-up" />
        <use href="#flag-type-up-eighth" />
    </g>
    <g transform="translate(160,50)">
        <use href="#note-type-eighth" />
        <use href="#dot" />
        <use href="#stem-type-down" />
        <use href="#flag-type-down-eighth" />
    </g>

    <g transform="translate(180,50)">
        <use href="#note-type-quarter" />
        <use href="#stem-type-up" />
    </g>
    <g transform="translate(200,50)">
        <use href="#note-type-quarter" />
        <use href="#stem-type-down" />
    </g>
    <g transform="translate(220,50)">
        <use href="#note-type-quarter" />
        <use href="#dot" />
        <use href="#stem-type-up" />
    </g>
    <g transform="translate(240,50)">
        <use href="#note-type-quarter" />
        <use href="#dot" />
        <use href="#stem-type-down" />
    </g>
    <g transform="translate(260,50)">
        <use href="#note-type-half" />
        <use href="#stem-type-up" />
    </g>
    <g transform="translate(280,50)">
        <use href="#note-type-half" />
        <use href="#stem-type-down" />
    </g>

    <g transform="translate(300,50)">
        <use href="#note-type-half" />
        <use href="#dot" />
        <use href="#stem-type-up" />
    </g>
    <g transform="translate(320,50)">
        <use href="#note-type-half" />
        <use href="#dot" />
        <use href="#stem-type-down" />
    </g>
    <g transform="translate(340,50)">
        <use href="#note-type-whole" />
    </g>
    <g transform="translate(360,50)">
        <use href="#note-type-whole" />
        <use href="#dot" />
    </g>
    
    <g transform="translate(400,50)">
        <use href="#rest-type-32nd" />
    </g>
    <g transform="translate(420,50)">
        <use href="#rest-type-16th" />
    </g>
    <g transform="translate(440,50)">
        <use href="#rest-type-eighth" />
    </g>
    <g transform="translate(460,50)">
        <use href="#rest-type-quarter" />
    </g>
    <g transform="translate(480,50)">
        <use href="#rest-type-half" />
    </g>
    <g transform="translate(500,50)">
        <use href="#rest-type-whole" />
    </g>
</svg>
